<svg xmlns="http://www.w3.org/2000/svg" xmlns:xlink="http://www.w3.org/1999/xlink" width="1024" zoomAndPan="magnify" viewBox="0 0 768 767.999994" height="1024" preserveAspectRatio="xMidYMid meet" version="1.0"><defs><clipPath id="25d4ed72c1"><path d="M 310 604 L 401 604 L 401 676.355469 L 310 676.355469 Z M 310 604 " clip-rule="nonzero"/></clipPath><clipPath id="8a3e666cf0"><path d="M 387 604 L 478 604 L 478 676.355469 L 387 676.355469 Z M 387 604 " clip-rule="nonzero"/></clipPath><clipPath id="7940f2425d"><path d="M 108.199219 163 L 196 163 L 196 280 L 108.199219 280 Z M 108.199219 163 " clip-rule="nonzero"/></clipPath><clipPath id="153405eefc"><path d="M 634 214 L 690.949219 214 L 690.949219 290 L 634 290 Z M 634 214 " clip-rule="nonzero"/></clipPath><clipPath id="e07b7fc322"><path d="M 499 101.855469 L 616 101.855469 L 616 199 L 499 199 Z M 499 101.855469 " clip-rule="nonzero"/></clipPath></defs><path fill="#ec766a" d="M 253.40625 609.832031 L 210.425781 396.660156 L 210.75 395.050781 C 211.367188 392.078125 211.671875 389.117188 211.671875 386.273438 C 211.671875 377.464844 209.074219 369.128906 204.164062 362.183594 L 203.1875 360.796875 L 170.273438 197.554688 L 176.253906 194.988281 C 185.074219 191.203125 194.957031 189.199219 204.820312 189.199219 C 218.96875 189.199219 232.765625 193.230469 243.851562 200.597656 C 254.28125 182.074219 276.472656 170.1875 300.878906 170.1875 C 316.660156 170.1875 331.683594 175.105469 343.363281 184.082031 C 355.261719 170.6875 374.050781 162.726562 393.886719 162.714844 C 413.734375 162.714844 432.5 170.675781 444.410156 184.082031 C 456.089844 175.105469 471.125 170.1875 486.894531 170.1875 C 511.296875 170.1875 533.488281 182.074219 543.910156 200.597656 C 554.992188 193.242188 568.792969 189.199219 582.953125 189.199219 C 592.824219 189.199219 602.695312 191.203125 611.519531 194.988281 L 617.5 197.554688 L 534.375 609.820312 L 253.40625 609.820312 Z M 253.40625 609.832031 " fill-opacity="1" fill-rule="nonzero"/><path fill="#f8beba" d="M 454.804688 609.832031 L 508.664062 609.832031 L 560.597656 192.695312 C 554.621094 194.605469 548.980469 197.226562 543.910156 200.597656 C 536.789062 187.949219 524.164062 178.40625 509.117188 173.613281 Z M 454.804688 609.832031 " fill-opacity="1" fill-rule="nonzero"/><path fill="#f8beba" d="M 362.8125 169.757812 L 365.378906 609.832031 L 418.828125 609.832031 L 416.238281 166.238281 C 409.175781 163.964844 401.625 162.726562 393.898438 162.726562 C 382.859375 162.726562 372.195312 165.269531 362.8125 169.769531 Z M 362.8125 169.757812 " fill-opacity="1" fill-rule="nonzero"/><path fill="#f8beba" d="M 266.984375 609.832031 L 320.691406 609.832031 L 277.394531 174.046875 C 262.90625 178.953125 250.785156 188.300781 243.863281 200.585938 C 238.316406 196.902344 232.089844 194.058594 225.484375 192.121094 L 266.984375 609.820312 Z M 266.984375 609.832031 " fill-opacity="1" fill-rule="nonzero"/><path fill="#f2de7f" d="M 539.070312 197.902344 C 528.246094 182.449219 508.257812 172.855469 486.90625 172.855469 C 473.199219 172.855469 460.261719 176.621094 449.503906 183.742188 L 444.152344 187.285156 L 439.527344 182.832031 C 436.695312 180.105469 433.441406 177.601562 429.851562 175.386719 L 426.53125 173.335938 L 426.042969 168.964844 C 425.925781 168.042969 425.832031 167.132812 425.832031 166.214844 C 425.832031 150 439.015625 136.820312 455.226562 136.820312 C 462.089844 136.820312 468.734375 139.265625 474.0625 143.753906 C 481.25 136.304688 491.296875 132.0625 501.847656 132.0625 C 502.417969 132.0625 502.988281 132.074219 503.546875 132.097656 L 508.011719 124.59375 C 514.398438 113.847656 526.089844 107.167969 538.511719 107.167969 C 556.367188 107.167969 571.261719 120.222656 573.675781 137.75 C 574.117188 137.726562 574.527344 137.714844 574.933594 137.714844 C 594.515625 137.714844 610.4375 153.648438 610.4375 173.21875 C 610.4375 178.683594 609.09375 184.230469 606.554688 189.230469 L 603.769531 194.734375 L 597.742188 193.453125 C 592.8125 192.402344 587.835938 191.867188 582.964844 191.867188 C 571.054688 191.867188 559.492188 194.792969 549.527344 200.316406 L 543.210938 203.8125 Z M 539.070312 197.902344 " fill-opacity="1" fill-rule="nonzero"/><path fill="#f2de7f" d="M 238.269531 200.316406 C 228.304688 194.792969 216.742188 191.867188 204.832031 191.867188 C 201.996094 191.867188 199.140625 192.042969 196.320312 192.378906 L 186.308594 193.578125 L 187.394531 183.554688 C 189.140625 167.34375 202.664062 155.128906 218.816406 155.128906 C 221.207031 155.128906 223.617188 155.398438 226.007812 155.933594 C 233.1875 135.105469 252.628906 121.199219 274.75 121.199219 C 300.261719 121.199219 322.183594 140.269531 325.761719 165.550781 L 327.371094 176.960938 L 316.113281 174.511719 C 311.136719 173.429688 306.019531 172.878906 300.878906 172.878906 C 279.515625 172.878906 259.527344 182.472656 248.710938 197.925781 L 244.574219 203.835938 L 238.257812 200.339844 Z M 238.269531 200.316406 " fill-opacity="1" fill-rule="nonzero"/><path fill="#f2de7f" d="M 161.496094 274.464844 C 153.839844 274.464844 146.648438 271.484375 141.253906 266.0625 C 135.785156 260.574219 132.800781 253.242188 132.824219 245.398438 L 132.824219 244.863281 C 132.824219 244.863281 132.871094 244.558594 132.871094 244.558594 C 121.101562 239.394531 113.546875 227.878906 113.546875 214.96875 C 113.546875 197.996094 126.648438 183.976562 143.511719 182.753906 C 148.992188 174.023438 158.28125 168.824219 168.511719 168.824219 C 175.484375 168.824219 182.042969 171.25 187.511719 175.839844 L 190.960938 178.742188 L 190.273438 183.195312 C 190.039062 184.722656 189.921875 186.074219 189.898438 187.34375 L 189.84375 193.207031 L 184.222656 194.921875 C 180.4375 196.074219 176.789062 197.542969 173.375 199.289062 L 185.890625 261.34375 L 183.363281 264.316406 C 177.871094 270.761719 169.898438 274.453125 161.507812 274.453125 Z M 161.496094 274.464844 " fill-opacity="1" fill-rule="nonzero"/><path fill="#f2de7f" d="M 177.71875 427.558594 C 165.25 427.558594 155.121094 417.417969 155.121094 404.945312 C 155.121094 397.429688 158.910156 390.46875 165.144531 386.273438 C 158.910156 382.101562 155.121094 375.132812 155.121094 367.601562 C 155.121094 355.132812 165.261719 345.003906 177.71875 345.003906 C 197.917969 345.003906 214.351562 363.523438 214.351562 386.273438 C 214.351562 409.023438 197.917969 427.558594 177.71875 427.558594 Z M 177.71875 427.558594 " fill-opacity="1" fill-rule="nonzero"/><path fill="#ec766a" d="M 355.644531 670.929688 C 335.050781 670.929688 317.71875 646.605469 316.207031 615.566406 L 315.796875 607.164062 L 395.519531 607.164062 L 395.109375 615.566406 C 393.582031 646.605469 376.261719 670.929688 355.667969 670.929688 Z M 355.644531 670.929688 " fill-opacity="1" fill-rule="nonzero"/><path fill="#ec766a" d="M 432.136719 670.929688 C 411.542969 670.929688 394.222656 646.605469 392.695312 615.566406 L 392.289062 607.164062 L 471.996094 607.164062 L 471.589844 615.566406 C 470.0625 646.605469 452.742188 670.929688 432.148438 670.929688 Z M 432.136719 670.929688 " fill-opacity="1" fill-rule="nonzero"/><path fill="#f2de7f" d="M 667.964844 284.210938 C 652.3125 284.210938 639.574219 269.875 639.574219 252.261719 C 639.574219 234.652344 652.3125 220.316406 667.964844 220.316406 C 677.695312 220.316406 685.597656 228.230469 685.597656 237.949219 C 685.597656 243.660156 682.789062 248.976562 678.152344 252.261719 C 682.789062 255.5625 685.597656 260.851562 685.597656 266.574219 C 685.597656 276.296875 677.683594 284.210938 667.964844 284.210938 Z M 667.964844 284.210938 " fill-opacity="1" fill-rule="nonzero"/><path fill="#f2de7f" d="M 145.679688 541.765625 C 134.003906 541.765625 124.503906 532.265625 124.503906 520.589844 C 124.503906 513.46875 128 507.023438 133.933594 503.070312 C 129.679688 496.917969 128.292969 489.867188 130.039062 483.105469 C 131.789062 476.355469 136.4375 470.808594 143.152344 467.476562 C 147.289062 465.425781 152.019531 464.339844 156.835938 464.339844 C 159.667969 464.339844 162.535156 464.703125 165.34375 465.4375 C 173.011719 467.417969 179.550781 471.871094 183.769531 477.976562 C 188.035156 484.15625 189.410156 491.265625 187.675781 498.011719 C 185.25 507.371094 176.964844 514.398438 166.34375 516.242188 C 166.707031 517.792969 166.871094 519.203125 166.871094 520.601562 C 166.871094 532.277344 157.371094 541.777344 145.691406 541.777344 Z M 145.679688 541.765625 " fill-opacity="1" fill-rule="nonzero"/><path fill="#f2de7f" d="M 191.589844 665.496094 C 185.574219 665.496094 179.644531 664.121094 174.363281 661.523438 C 169.96875 664.132812 164.832031 665.496094 159.457031 665.496094 C 145.738281 665.496094 134.585938 656.777344 134.585938 646.054688 C 134.585938 635.332031 144.550781 627.535156 157.453125 626.730469 C 161.4375 613.234375 175.609375 603.527344 191.589844 603.527344 C 211.042969 603.527344 226.871094 617.417969 226.871094 634.507812 C 226.871094 651.59375 211.042969 665.484375 191.589844 665.484375 Z M 191.589844 665.496094 " fill-opacity="1" fill-rule="nonzero"/><path fill="#e84d73" d="M 271.160156 327.207031 C 258.875 326.566406 248.398438 335.992188 247.753906 348.277344 C 247.113281 360.5625 256.542969 371.042969 268.828125 371.683594 C 281.113281 372.324219 291.589844 362.894531 292.230469 350.609375 C 292.871094 338.324219 283.441406 327.847656 271.160156 327.207031 Z M 271.160156 327.207031 " fill-opacity="1" fill-rule="nonzero"/><path fill="#e84d73" d="M 515.226562 329.082031 C 502.941406 328.441406 492.464844 337.871094 491.824219 350.15625 C 491.183594 362.441406 500.609375 372.917969 512.894531 373.558594 C 525.179688 374.199219 535.65625 364.769531 536.296875 352.484375 C 536.9375 340.203125 527.511719 329.722656 515.226562 329.082031 Z M 515.226562 329.082031 " fill-opacity="1" fill-rule="nonzero"/><path fill="#472d05" d="M 533.292969 615.183594 L 254.503906 615.183594 C 251.320312 615.183594 248.582031 612.933594 247.953125 609.820312 L 205.597656 399.757812 C 204.863281 396.144531 207.207031 392.613281 210.832031 391.890625 C 214.445312 391.179688 217.40625 390.703125 218.140625 394.316406 L 259.980469 601.824219 L 527.835938 601.824219 L 608.371094 202.367188 C 600.515625 198.988281 591.835938 197.226562 582.964844 197.226562 C 569.910156 197.226562 557.242188 201.0625 547.289062 208.019531 C 545.714844 209.117188 543.746094 209.5 541.882812 209.035156 C 540.015625 208.578125 538.441406 207.34375 537.546875 205.644531 C 528.816406 188.988281 508.945312 178.21875 486.917969 178.21875 C 472.5 178.21875 458.828125 182.808594 448.441406 191.144531 C 445.621094 193.417969 441.507812 193.019531 439.164062 190.246094 C 428.828125 178.042969 411.90625 170.746094 393.921875 170.746094 C 375.925781 170.746094 359.015625 178.042969 348.664062 190.246094 C 346.320312 193.007812 342.21875 193.40625 339.386719 191.144531 C 328.992188 182.808594 315.332031 178.21875 300.914062 178.21875 C 278.886719 178.21875 259.015625 188.988281 250.273438 205.644531 C 249.375 207.34375 247.800781 208.578125 245.9375 209.035156 C 244.074219 209.511719 242.101562 209.117188 240.53125 208.019531 C 230.574219 201.0625 217.894531 197.226562 204.851562 197.226562 C 195.984375 197.226562 187.300781 199 179.445312 202.367188 L 210.878906 358.277344 C 211.613281 361.890625 209.109375 364.628906 205.496094 365.351562 C 201.871094 366.054688 198.351562 363.746094 197.628906 360.121094 L 165.320312 199.910156 C 164.738281 197.007812 166.125 194.082031 168.734375 192.683594 C 179.609375 186.902344 192.101562 183.847656 204.851562 183.847656 C 217.605469 183.847656 231.125 187.167969 242.171875 193.300781 C 254.421875 175.816406 276.683594 164.839844 300.914062 164.839844 C 316.160156 164.839844 330.785156 169.140625 342.742188 177.050781 C 355.65625 164.640625 374.328125 157.378906 393.910156 157.367188 C 413.511719 157.367188 432.183594 164.640625 445.097656 177.050781 C 457.054688 169.140625 471.683594 164.839844 486.925781 164.839844 C 511.148438 164.839844 533.417969 175.816406 545.667969 193.300781 C 556.71875 187.167969 569.726562 183.847656 582.988281 183.847656 C 596.25 183.847656 608.222656 186.902344 619.105469 192.683594 C 621.71875 194.070312 623.105469 197.007812 622.523438 199.910156 L 539.875 609.820312 C 539.246094 612.933594 536.507812 615.183594 533.328125 615.183594 Z M 533.292969 615.183594 " fill-opacity="1" fill-rule="nonzero"/><g clip-path="url(#25d4ed72c1)"><path fill="#472d05" d="M 355.644531 676.277344 C 330.460938 676.277344 310.714844 647.699219 310.714844 611.207031 C 310.714844 607.523438 313.710938 604.527344 317.394531 604.527344 C 321.078125 604.527344 324.074219 607.523438 324.074219 611.207031 C 324.074219 639.226562 338.523438 662.910156 355.632812 662.910156 C 372.742188 662.910156 387.195312 639.226562 387.195312 611.207031 C 387.195312 607.523438 390.191406 604.527344 393.875 604.527344 C 397.558594 604.527344 400.550781 607.523438 400.550781 611.207031 C 400.550781 647.6875 380.820312 676.277344 355.621094 676.277344 Z M 355.644531 676.277344 " fill-opacity="1" fill-rule="nonzero"/></g><g clip-path="url(#8a3e666cf0)"><path fill="#472d05" d="M 432.136719 676.277344 C 406.953125 676.277344 387.21875 647.699219 387.21875 611.207031 C 387.21875 607.523438 390.214844 604.527344 393.898438 604.527344 C 397.582031 604.527344 400.574219 607.523438 400.574219 611.207031 C 400.574219 639.226562 415.027344 662.910156 432.136719 662.910156 C 449.246094 662.910156 463.699219 639.226562 463.699219 611.207031 C 463.699219 607.523438 466.695312 604.527344 470.378906 604.527344 C 474.0625 604.527344 477.054688 607.523438 477.054688 611.207031 C 477.054688 647.6875 457.324219 676.277344 432.125 676.277344 Z M 432.136719 676.277344 " fill-opacity="1" fill-rule="nonzero"/></g><path fill="#472d05" d="M 425.574219 351.320312 C 421.882812 351.320312 418.898438 348.324219 418.898438 344.640625 C 418.898438 330.855469 407.683594 319.640625 393.898438 319.640625 C 380.109375 319.640625 368.898438 330.855469 368.898438 344.640625 C 368.898438 348.324219 365.902344 351.320312 362.21875 351.320312 C 358.535156 351.320312 355.539062 348.324219 355.539062 344.640625 C 355.539062 323.488281 372.753906 306.273438 393.898438 306.273438 C 415.039062 306.273438 432.253906 323.488281 432.253906 344.640625 C 432.253906 348.324219 429.257812 351.320312 425.574219 351.320312 Z M 425.574219 351.320312 " fill-opacity="1" fill-rule="nonzero"/><path fill="#472d05" d="M 320.109375 319.640625 C 304.761719 319.640625 292.265625 306.691406 292.265625 290.785156 C 292.265625 287.101562 295.261719 284.105469 298.945312 284.105469 C 302.628906 284.105469 305.621094 287.101562 305.621094 290.785156 C 305.621094 299.328125 312.113281 306.273438 320.097656 306.273438 C 328.082031 306.273438 334.574219 299.328125 334.574219 290.785156 C 334.574219 287.101562 337.570312 284.105469 341.25 284.105469 C 344.933594 284.105469 347.929688 287.101562 347.929688 290.785156 C 347.929688 306.691406 335.4375 319.640625 320.085938 319.640625 Z M 320.109375 319.640625 " fill-opacity="1" fill-rule="nonzero"/><path fill="#472d05" d="M 459.75 314.199219 C 444.398438 314.199219 431.90625 301.25 431.90625 285.339844 C 431.90625 281.65625 434.898438 278.664062 438.582031 278.664062 C 442.265625 278.664062 445.261719 281.65625 445.261719 285.339844 C 445.261719 293.882812 451.753906 300.832031 459.738281 300.832031 C 467.71875 300.832031 474.210938 293.882812 474.210938 285.339844 C 474.210938 281.65625 477.207031 278.664062 480.890625 278.664062 C 484.574219 278.664062 487.570312 281.65625 487.570312 285.339844 C 487.570312 301.25 475.074219 314.199219 459.726562 314.199219 Z M 459.75 314.199219 " fill-opacity="1" fill-rule="nonzero"/><path fill="#472d05" d="M 332.207031 474.96875 C 328.78125 474.96875 325.25 474.179688 321.90625 472.605469 C 317.664062 470.609375 313.710938 467.417969 309.820312 462.859375 C 300.726562 452.207031 295.679688 438.933594 291.230469 427.21875 C 289.921875 423.769531 291.648438 419.910156 295.097656 418.59375 C 298.546875 417.277344 302.40625 419.027344 303.710938 422.464844 C 307.976562 433.6875 312.382812 445.285156 319.96875 454.175781 C 322.605469 457.265625 325.097656 459.339844 327.582031 460.507812 C 330.085938 461.683594 332.753906 461.929688 334.738281 461.160156 C 337.824219 459.957031 340.390625 456.007812 342.347656 449.421875 C 348.1875 429.785156 347.289062 408.464844 339.808594 389.386719 C 338.453125 385.949219 340.15625 382.078125 343.582031 380.726562 C 347.019531 379.375 350.890625 381.078125 352.242188 384.503906 C 360.808594 406.332031 361.835938 430.738281 355.15625 453.222656 C 351.917969 464.109375 346.824219 470.773438 339.585938 473.59375 C 337.265625 474.503906 334.761719 474.945312 332.183594 474.945312 Z M 332.207031 474.96875 " fill-opacity="1" fill-rule="nonzero"/><path fill="#472d05" d="M 435.109375 474.96875 C 432.535156 474.96875 430.027344 474.527344 427.707031 473.617188 C 420.472656 470.796875 415.378906 464.132812 412.136719 453.246094 C 405.449219 430.761719 406.484375 406.355469 415.050781 384.527344 C 416.402344 381.097656 420.273438 379.398438 423.710938 380.75 C 427.148438 382.101562 428.839844 385.972656 427.488281 389.410156 C 420.003906 408.476562 419.09375 429.792969 424.945312 449.445312 C 426.90625 456.03125 429.46875 459.96875 432.558594 461.183594 C 434.527344 461.953125 437.207031 461.707031 439.714844 460.53125 C 442.195312 459.363281 444.691406 457.289062 447.324219 454.199219 C 454.921875 445.296875 459.328125 433.699219 463.59375 422.488281 C 464.910156 419.039062 468.757812 417.300781 472.207031 418.617188 C 475.65625 419.933594 477.394531 423.792969 476.078125 427.242188 C 471.625 438.957031 466.578125 452.21875 457.488281 462.882812 C 453.59375 467.441406 449.644531 470.632812 445.402344 472.628906 C 442.066406 474.199219 438.535156 474.992188 435.109375 474.992188 Z M 435.109375 474.96875 " fill-opacity="1" fill-rule="nonzero"/><path fill="#472d05" d="M 188.535156 193.707031 C 184.84375 193.707031 181.859375 191.351562 181.859375 187.660156 C 181.859375 165.96875 200.644531 147.820312 222.605469 149.964844 C 231.578125 129.335938 251.859375 115.851562 274.761719 115.851562 C 306.148438 115.851562 331.671875 141.386719 331.671875 172.773438 C 331.671875 176.457031 328.675781 179.453125 324.992188 179.453125 C 321.308594 179.453125 318.316406 176.457031 318.316406 172.773438 C 318.316406 148.753906 298.78125 129.21875 274.761719 129.21875 C 255.714844 129.21875 239.039062 141.410156 233.257812 159.558594 C 232.171875 162.949219 228.617188 164.90625 225.191406 163.988281 C 209.246094 159.804688 195.226562 171.902344 195.226562 187.042969 C 195.226562 190.722656 192.230469 193.71875 188.546875 193.71875 Z M 188.535156 193.707031 " fill-opacity="1" fill-rule="nonzero"/><g clip-path="url(#7940f2425d)"><path fill="#472d05" d="M 161.496094 279.816406 C 143.421875 279.816406 128.59375 265.667969 127.5 247.859375 C 115.632812 241.261719 108.199219 228.8125 108.199219 214.980469 C 108.199219 196.097656 122.125 180.351562 140.484375 177.71875 C 147.066406 168.742188 157.3125 163.484375 168.511719 163.484375 C 177.871094 163.484375 186.660156 167.132812 193.269531 173.753906 C 195.878906 176.363281 195.867188 180.597656 193.257812 183.207031 C 190.644531 185.816406 186.414062 185.816406 183.804688 183.207031 C 179.726562 179.117188 174.292969 176.867188 168.511719 176.867188 C 160.902344 176.867188 153.992188 180.839844 150.027344 187.484375 C 148.886719 189.40625 146.859375 190.621094 144.632812 190.734375 C 131.695312 191.398438 121.566406 202.042969 121.566406 214.988281 C 121.566406 224.957031 127.558594 233.8125 136.824219 237.542969 C 139.527344 238.636719 141.21875 241.355469 140.984375 244.257812 C 140.949219 244.652344 140.902344 245.058594 140.84375 245.457031 C 140.796875 257.195312 150.085938 266.472656 161.496094 266.472656 C 168.105469 266.472656 174.375 263.265625 178.269531 257.917969 C 180.4375 254.933594 184.609375 254.257812 187.605469 256.4375 C 190.585938 258.605469 191.253906 262.777344 189.085938 265.761719 C 182.6875 274.570312 172.382812 279.839844 161.507812 279.839844 Z M 161.496094 279.816406 " fill-opacity="1" fill-rule="nonzero"/></g><path fill="#472d05" d="M 177.71875 432.894531 C 162.3125 432.894531 149.773438 420.355469 149.773438 404.933594 C 149.773438 397.929688 152.417969 391.320312 157.019531 386.261719 C 152.429688 381.214844 149.773438 374.597656 149.773438 367.589844 C 149.773438 352.183594 162.3125 339.640625 177.71875 339.640625 C 200.867188 339.640625 219.703125 360.550781 219.703125 386.261719 C 219.703125 411.972656 200.867188 432.882812 177.71875 432.882812 Z M 177.71875 353.011719 C 169.679688 353.011719 163.128906 359.5625 163.128906 367.601562 C 163.128906 372.917969 166.101562 377.824219 170.878906 380.378906 C 173.046875 381.542969 174.398438 383.804688 174.398438 386.261719 C 174.398438 388.722656 173.046875 390.984375 170.878906 392.148438 C 166.089844 394.722656 163.117188 399.621094 163.117188 404.933594 C 163.117188 412.976562 169.65625 419.527344 177.707031 419.527344 C 193.488281 419.527344 206.332031 404.609375 206.332031 386.261719 C 206.332031 367.917969 193.488281 353.011719 177.707031 353.011719 Z M 177.71875 353.011719 " fill-opacity="1" fill-rule="nonzero"/><g clip-path="url(#153405eefc)"><path fill="#472d05" d="M 667.964844 289.558594 C 649.363281 289.558594 634.222656 272.835938 634.222656 252.261719 C 634.222656 231.691406 649.363281 214.96875 667.964844 214.96875 C 680.632812 214.96875 690.949219 225.269531 690.949219 237.949219 C 690.949219 243.242188 689.117188 248.253906 685.890625 252.261719 C 689.117188 256.261719 690.949219 261.285156 690.949219 266.574219 C 690.949219 279.246094 680.632812 289.558594 667.964844 289.558594 Z M 667.964844 228.335938 C 656.730469 228.335938 647.59375 239.070312 647.59375 252.261719 C 647.59375 265.457031 656.730469 276.191406 667.964844 276.191406 C 673.269531 276.191406 677.59375 271.878906 677.59375 266.5625 C 677.59375 263.066406 675.632812 259.839844 672.476562 258.136719 C 670.308594 256.972656 668.957031 254.710938 668.957031 252.25 C 668.957031 249.792969 670.308594 247.53125 672.476562 246.367188 C 675.632812 244.664062 677.59375 241.449219 677.59375 237.9375 C 677.59375 232.636719 673.28125 228.3125 667.964844 228.3125 Z M 667.964844 228.335938 " fill-opacity="1" fill-rule="nonzero"/></g><path fill="#472d05" d="M 145.679688 547.117188 C 131.054688 547.117188 119.152344 535.214844 119.152344 520.589844 C 119.152344 513.492188 122.066406 506.753906 127.03125 501.835938 C 123.933594 495.460938 123.128906 488.410156 124.855469 481.765625 C 126.988281 473.488281 132.640625 466.71875 140.773438 462.6875 C 148.570312 458.816406 157.777344 457.953125 166.683594 460.261719 C 175.585938 462.558594 183.222656 467.777344 188.164062 474.933594 C 193.316406 482.394531 194.980469 491.066406 192.835938 499.339844 C 190.285156 509.226562 182.488281 516.953125 172.195312 520.273438 C 172.195312 520.378906 172.195312 520.496094 172.195312 520.601562 C 172.195312 535.226562 160.296875 547.128906 145.667969 547.128906 Z M 156.824219 472.359375 C 153.246094 472.359375 149.785156 473.128906 146.707031 474.65625 C 142.101562 476.941406 138.945312 480.644531 137.789062 485.109375 C 136.554688 489.878906 137.753906 494.945312 141.160156 499.386719 C 142.324219 500.914062 142.777344 502.871094 142.40625 504.761719 C 142.03125 506.648438 140.855469 508.28125 139.1875 509.238281 C 135.015625 511.636719 132.523438 515.867188 132.523438 520.589844 C 132.523438 527.851562 138.429688 533.746094 145.679688 533.746094 C 152.929688 533.746094 158.839844 527.851562 158.839844 520.589844 C 158.839844 519.539062 158.652344 518.386719 158.246094 516.964844 C 157.710938 515.085938 158.011719 513.070312 159.097656 511.4375 C 160.167969 509.808594 161.90625 508.734375 163.851562 508.492188 C 171.90625 507.488281 178.210938 502.582031 179.910156 495.984375 C 181.066406 491.53125 180.085938 486.742188 177.171875 482.523438 C 174.050781 478 169.140625 474.691406 163.339844 473.1875 C 161.171875 472.628906 158.980469 472.347656 156.835938 472.347656 Z M 156.824219 472.359375 " fill-opacity="1" fill-rule="nonzero"/><path fill="#472d05" d="M 191.589844 670.847656 C 185.714844 670.847656 179.898438 669.691406 174.5625 667.492188 C 169.957031 669.703125 164.808594 670.847656 159.457031 670.847656 C 142.789062 670.847656 129.246094 659.726562 129.246094 646.066406 C 129.246094 634.0625 139.597656 624.0625 153.535156 621.8125 C 159.363281 607.699219 174.339844 598.199219 191.589844 598.199219 C 213.992188 598.199219 232.207031 614.496094 232.207031 634.53125 C 232.207031 654.566406 213.992188 670.859375 191.589844 670.859375 Z M 174.304688 653.316406 C 175.355469 653.316406 176.414062 653.5625 177.382812 654.0625 C 181.683594 656.300781 186.601562 657.480469 191.589844 657.480469 C 206.625 657.480469 218.851562 647.175781 218.851562 634.519531 C 218.851562 621.859375 206.625 611.558594 191.589844 611.558594 C 178.851562 611.558594 167.652344 619.179688 164.957031 629.691406 C 164.222656 632.570312 161.671875 634.609375 158.699219 634.714844 C 149.832031 634.996094 142.605469 640.089844 142.605469 646.066406 C 142.605469 652.046875 150.320312 657.488281 159.457031 657.488281 C 163.59375 657.488281 167.5 656.40625 170.738281 654.355469 C 171.824219 653.667969 173.058594 653.328125 174.304688 653.328125 Z M 174.304688 653.316406 " fill-opacity="1" fill-rule="nonzero"/><path fill="#472d05" d="M 427.640625 178.089844 C 424.480469 178.089844 421.683594 175.851562 421.078125 172.636719 C 420.679688 170.515625 420.484375 168.347656 420.484375 166.203125 C 420.484375 147.039062 436.066406 131.457031 455.226562 131.457031 C 461.777344 131.457031 468.140625 133.335938 473.652344 136.832031 C 481.460938 130.339844 491.4375 126.703125 501.835938 126.703125 C 518.5 126.703125 533.40625 135.710938 540.761719 150.199219 C 542.429688 153.496094 541.113281 157.507812 537.824219 159.183594 C 534.539062 160.851562 530.515625 159.546875 528.851562 156.25 C 523.792969 146.269531 513.441406 140.070312 501.847656 140.070312 C 493.128906 140.070312 484.839844 143.71875 479.117188 150.070312 C 477.929688 151.398438 476.25 152.191406 474.46875 152.273438 C 472.660156 152.367188 470.949219 151.726562 469.632812 150.527344 C 465.632812 146.855469 460.515625 144.824219 455.226562 144.824219 C 443.429688 144.824219 433.851562 154.417969 433.851562 166.203125 C 433.851562 167.53125 433.980469 168.871094 434.222656 170.175781 C 434.898438 173.800781 432.511719 177.296875 428.886719 177.972656 C 428.476562 178.054688 428.058594 178.089844 427.652344 178.089844 Z M 427.640625 178.089844 " fill-opacity="1" fill-rule="nonzero"/><g clip-path="url(#e07b7fc322)"><path fill="#472d05" d="M 603.710938 198.3125 C 602.476562 198.3125 601.226562 197.972656 600.109375 197.25 C 596.996094 195.257812 596.101562 191.132812 598.082031 188.019531 C 600.914062 183.601562 602.40625 178.484375 602.40625 173.21875 C 602.40625 158.054688 590.074219 145.722656 574.910156 145.722656 C 574.304688 145.722656 573.722656 145.769531 573.128906 145.816406 C 569.550781 146.097656 566.195312 143.449219 565.820312 139.835938 C 564.386719 125.769531 552.640625 115.175781 538.476562 115.175781 C 526.894531 115.175781 516.496094 122.496094 512.59375 133.390625 C 511.34375 136.867188 507.523438 138.660156 504.050781 137.425781 C 500.574219 136.179688 498.769531 132.355469 500.015625 128.882812 C 505.820312 112.691406 521.273438 101.808594 538.488281 101.808594 C 557.464844 101.808594 573.535156 114.628906 578.070312 132.472656 C 599.128906 134.078125 615.773438 151.738281 615.773438 173.207031 C 615.773438 181.039062 613.546875 188.648438 609.339844 195.222656 C 608.058594 197.214844 605.914062 198.300781 603.710938 198.300781 Z M 603.710938 198.3125 " fill-opacity="1" fill-rule="nonzero"/></g></svg>