<svg width="21" height="18" viewBox="0 0 21 18" fill="none" xmlns="http://www.w3.org/2000/svg">
<path d="M4.64003 6.64203C4.24242 6.64203 3.92019 6.94089 3.92019 7.30966C3.92019 7.67844 4.24242 7.97867 4.64003 7.97867C5.03764 7.97867 5.35987 7.67981 5.35987 7.30966C5.35987 6.93952 5.03764 6.64203 4.64003 6.64203Z" fill="white"/>
<path d="M11.7571 6.57212C11.3285 6.57212 10.9811 6.89428 10.9811 7.29184C10.9811 7.68941 11.3285 8.01157 11.7571 8.01157C12.1858 8.01157 12.5331 7.68941 12.5331 7.29184C12.5331 6.89428 12.1858 6.57212 11.7571 6.57212Z" fill="white"/>
<path d="M15.7643 7.29184C15.7643 6.90388 16.1042 6.58857 16.5226 6.58857C16.9409 6.58857 17.2808 6.90388 17.2808 7.29184C17.2808 7.67981 16.9409 7.99512 16.5226 7.99512C16.1042 7.99512 15.7643 7.67981 15.7643 7.29184Z" fill="white"/>
<path fill-rule="evenodd" clip-rule="evenodd" d="M2.87376 0H18.2003C19.7464 0 20.9998 1.16253 20.9998 2.5965V11.0331C20.9998 12.467 19.7464 13.6296 18.2003 13.6296H12.8362L10.9945 17.6532C10.9945 17.6532 10.8689 18.0014 10.5614 18.0014C10.2554 18.0014 10.1283 17.6532 10.1283 17.6532L8.2866 13.6296H2.87376C1.32766 13.6296 0.0742188 12.467 0.0742188 11.0331V2.5965C0.0742188 1.16253 1.32766 0 2.87376 0ZM4.91946 9.04387C4.91946 9.04387 6.6385 9 6.64737 7.45773H6.64589C6.64589 7.45773 6.87796 5.65499 5.02441 5.49459C5.02441 5.49459 4.17302 5.48637 3.87887 5.95248V4.12094C3.87887 4.12094 2.70525 4.13465 2.62691 4.12369V4.12094C2.621 4.12232 2.62691 4.12369 2.62691 4.12369V8.91363H3.87887V8.63534C3.87887 8.63534 4.25431 9.04387 4.91946 9.04387ZM8.85123 8.92186V5.64265C8.85123 5.64265 8.99165 4.04006 7.03464 3.96603V5.11074C7.03464 5.11074 7.62588 5.23412 7.62588 5.67555V8.92186H8.85123ZM9.70115 7.29322C9.70115 8.26108 10.6205 9.04661 11.7557 9.04661C12.8909 9.04661 13.8103 8.26108 13.8103 7.29322C13.8103 6.32536 12.8909 5.53983 11.7557 5.53983C10.6205 5.53983 9.70115 6.32536 9.70115 7.29322ZM16.6616 10.7123C18.487 10.7123 18.4693 9.04661 18.4693 9.04661V5.58644H17.2262V5.9374C16.8197 5.43016 16.159 5.49596 16.159 5.49596C14.4843 5.60975 14.4488 7.04098 14.4488 7.04098V7.56466C14.4488 8.94516 15.9742 9.04661 15.9742 9.04661C17.0503 9.04661 17.1996 8.60244 17.1996 8.60244C17.2085 9.69916 16.4413 9.63336 16.4413 9.63336H16.1058V10.7123H16.6616Z" fill="white"/>
</svg>
