<svg width="22" height="20" viewBox="0 0 22 20" fill="none" xmlns="http://www.w3.org/2000/svg">
<path d="M6.36843 0.0699379C5.25526 0.120138 4.49508 0.289939 3.83052 0.53954C3.14274 0.79574 2.55978 1.13954 1.97976 1.69594C1.39974 2.25235 1.04256 2.80995 0.776402 3.46835C0.518824 4.10495 0.344315 4.83215 0.295143 5.89676C0.245971 6.96136 0.23509 7.30356 0.24053 10.0192C0.245971 12.7348 0.258525 13.0752 0.31251 14.142C0.365658 15.2058 0.542678 15.9322 0.803813 16.5676C1.07227 17.225 1.43154 17.782 2.01387 18.3366C2.59619 18.8912 3.17914 19.2318 3.86965 19.4866C4.53504 19.7324 5.29606 19.9 6.40965 19.9466C7.52325 19.9932 7.88168 20.004 10.7219 19.9988C13.5622 19.9936 13.9198 19.9816 15.0357 19.931C16.1516 19.8804 16.9076 19.71 17.5726 19.4616C18.2604 19.2044 18.8435 18.8616 19.4233 18.3048C20.0031 17.748 20.3601 17.19 20.6261 16.5312C20.8839 15.8952 21.059 15.1678 21.1073 14.1042C21.1561 13.0368 21.1676 12.696 21.1621 9.98077C21.1567 7.26556 21.1439 6.92516 21.091 5.85876C21.0381 4.79235 20.8608 4.06815 20.5999 3.43235C20.331 2.77495 19.9722 2.21835 19.3901 1.66334C18.8079 1.10834 18.2237 0.76734 17.5347 0.513739C16.8689 0.267539 16.1083 0.099738 14.9947 0.0537378C13.8811 0.00773764 13.5227 -0.0040624 10.6814 0.00113762C7.84004 0.00633763 7.48433 0.0179377 6.36843 0.0699379ZM6.49063 18.1476C5.47057 18.1052 4.9167 17.9432 4.5476 17.8076C4.0588 17.6276 3.71062 17.41 3.34277 17.0618C2.97492 16.7136 2.74894 16.3796 2.55811 15.9134C2.41478 15.5606 2.24215 15.0318 2.19444 14.0568C2.14255 13.003 2.13167 12.6866 2.1256 10.0168C2.11954 7.34696 2.13021 7.03096 2.17854 5.97676C2.22206 5.00256 2.3926 4.47255 2.53426 4.11995C2.72257 3.65215 2.94939 3.31995 3.31452 2.96855C3.67965 2.61715 4.02804 2.40075 4.51621 2.21835C4.8849 2.08074 5.43814 1.91714 6.45778 1.87074C7.56112 1.82074 7.89172 1.81074 10.6845 1.80494C13.4773 1.79914 13.8087 1.80914 14.9125 1.85554C15.9317 1.89794 16.4864 2.05934 16.8549 2.19555C17.3439 2.37555 17.6918 2.59175 18.0595 2.94135C18.4271 3.29095 18.6537 3.62275 18.8446 4.09035C18.9887 4.44175 19.1599 4.97036 19.208 5.94556C19.2605 7.00016 19.2725 7.31636 19.2775 9.98557C19.2825 12.6548 19.2727 12.9718 19.2243 14.0256C19.1798 15.0006 19.0107 15.5302 18.8686 15.8834C18.6803 16.3504 18.4533 16.6834 18.0879 17.0346C17.7226 17.3858 17.3746 17.6022 16.8863 17.7846C16.518 17.922 15.9641 18.086 14.9453 18.1324C13.842 18.182 13.5114 18.1924 10.7176 18.1982C7.92374 18.204 7.59418 18.1932 6.49084 18.1476M15.0196 4.65535C15.02 4.89271 15.0941 5.12462 15.2324 5.32174C15.3707 5.51887 15.5671 5.67237 15.7966 5.76281C16.0262 5.85326 16.2787 5.8766 16.5222 5.82988C16.7657 5.78315 16.9892 5.66847 17.1644 5.50033C17.3397 5.33218 17.4589 5.11813 17.5068 4.88525C17.5548 4.65237 17.5295 4.41112 17.434 4.19201C17.3386 3.97289 17.1773 3.78576 16.9705 3.65428C16.7638 3.5228 16.5209 3.45288 16.2725 3.45335C15.9397 3.45399 15.6206 3.58097 15.3857 3.80638C15.1507 4.03179 15.019 4.33716 15.0196 4.65535ZM5.32954 10.01C5.3354 12.846 7.74504 15.1398 10.7115 15.1344C13.6779 15.129 16.0794 12.826 16.0738 9.98997C16.0681 7.15396 13.6578 4.85955 10.691 4.86515C7.72412 4.87075 5.32389 7.17436 5.32954 10.01ZM7.21398 10.0064C7.21262 9.34709 7.41582 8.70222 7.79789 8.15332C8.17996 7.60442 8.72374 7.17614 9.36047 6.92264C9.99719 6.66914 10.6983 6.6018 11.375 6.72914C12.0518 6.85648 12.6739 7.17278 13.1626 7.63804C13.6512 8.1033 13.9846 8.69663 14.1205 9.34299C14.2564 9.98935 14.1888 10.6597 13.9261 11.2693C13.6634 11.8789 13.2175 12.4004 12.6447 12.7677C12.072 13.1351 11.3981 13.3319 10.7083 13.3332C10.2504 13.3341 9.79665 13.2488 9.37316 13.0821C8.94967 12.9154 8.56469 12.6706 8.24019 12.3616C7.9157 12.0527 7.65806 11.6857 7.48198 11.2816C7.3059 10.8775 7.21483 10.4441 7.21398 10.0064Z" fill="white"/>
</svg>
