<svg width="22" height="15" viewBox="0 0 22 15" fill="none" xmlns="http://www.w3.org/2000/svg">
<path d="M20.3016 2.46799L20.3017 2.46852C20.5059 3.24876 20.6141 4.4909 20.6689 5.57316C20.6959 6.10695 20.7094 6.5896 20.7162 6.93883C20.7196 7.11333 20.7213 7.25425 20.7221 7.35127C20.7225 7.39977 20.7227 7.43727 20.7228 7.4625L20.7229 7.49095L20.7229 7.49796L20.723 7.49961V7.49996V7.5V7.50004V7.50039L20.7229 7.50204L20.7229 7.50905L20.7228 7.53752C20.7227 7.56275 20.7225 7.60027 20.7221 7.64878C20.7213 7.74583 20.7196 7.88679 20.7162 8.06135C20.7094 8.41067 20.6959 8.89343 20.6689 9.4273C20.6141 10.5097 20.5059 11.7518 20.3018 12.5314L20.3016 12.532C20.1055 13.2847 19.5269 13.8718 18.8033 14.0702L18.8033 14.0702C18.4485 14.1676 17.7796 14.2493 16.9329 14.3126C16.1005 14.3747 15.1379 14.4164 14.2214 14.4443C13.3057 14.4721 12.4402 14.4861 11.8033 14.493C11.485 14.4965 11.2241 14.4983 11.0428 14.4991C10.9522 14.4996 10.8816 14.4998 10.8336 14.4999L10.7792 14.5L10.7654 14.5L10.7619 14.5L10.7611 14.5H10.7609L10.7609 15L10.7608 14.5H10.7607L10.7598 14.5L10.7564 14.5L10.7426 14.5L10.6881 14.4999C10.6402 14.4998 10.5696 14.4996 10.479 14.4991C10.2978 14.4983 10.0369 14.4965 9.71862 14.493C9.08187 14.4861 8.21648 14.4721 7.30087 14.4443C6.38445 14.4164 5.42183 14.3747 4.58938 14.3126C3.7426 14.2493 3.07352 14.1676 2.71844 14.0702C1.99485 13.8718 1.41628 13.2847 1.22018 12.532L1.22004 12.5315C1.01586 11.7512 0.907652 10.5091 0.852877 9.42684C0.825861 8.89305 0.812334 8.4104 0.80557 8.06117C0.802191 7.88667 0.800505 7.74575 0.799664 7.64873C0.799244 7.60023 0.799035 7.56273 0.798931 7.5375L0.79884 7.50905L0.79883 7.50204L0.798828 7.50039L0.798828 7.50004V7.50002V7.49998V7.49996L0.798828 7.49961L0.79883 7.49796L0.79884 7.49095L0.798931 7.4625C0.799035 7.43727 0.799244 7.39977 0.799664 7.35127C0.800505 7.25425 0.802191 7.11333 0.80557 6.93883C0.812334 6.5896 0.825861 6.10695 0.852877 5.57316C0.907652 4.4909 1.01586 3.24876 1.22004 2.46852L1.22018 2.46799C1.41628 1.7153 1.99485 1.12819 2.71844 0.929782L2.71852 0.929757C3.07325 0.83242 3.74213 0.750668 4.58888 0.687435C5.42127 0.625273 6.38393 0.583587 7.30042 0.555717C8.2161 0.527871 9.0816 0.513934 9.71845 0.506963C10.0368 0.503479 10.2977 0.501738 10.4789 0.500868C10.5695 0.500434 10.6402 0.500216 10.6881 0.500108L10.7426 0.500013L10.7564 0.500002L10.7598 0.5L10.7607 0.5H10.7608L10.7609 0L10.7609 0.5H10.7611L10.7619 0.5L10.7654 0.500002L10.7792 0.500013L10.8336 0.500108C10.8816 0.500216 10.9522 0.500434 11.0428 0.500868C11.2241 0.501738 11.485 0.503479 11.8033 0.506963C12.4402 0.513934 13.3057 0.527871 14.2214 0.555717C15.1379 0.583587 16.1005 0.625273 16.9329 0.687435C17.7796 0.750668 18.4485 0.83242 18.8033 0.929757L18.8033 0.929782C19.5269 1.12819 20.1055 1.7153 20.3016 2.46799Z" fill="black" stroke="white"/>
<path d="M8.66797 10L13.899 7.5L8.66797 5V10Z" fill="white"/>
</svg>
